# xmcd
#
# Track frame offsets:
#	150
#	14875
#	34202
#	46562
#	74437
#	88987
#	103202
#	121712
#	135837
#	148262
#
# Disc length: 2188 seconds
#
# Revision: 0
# Processed by: cddbd v1.5.1PL0 Copyright (c) Steve Scherf et al.
# Submitted via: audiograbber 1.83.01
#
DISCID=8d088a0a
DTITLE=Blush - Late At Night
DYEAR=1992
DGENRE=Blues
TTITLE0=Late At Night
TTITLE1=Dont' Worry
TTITLE2=Pretty Girls
TTITLE3=I'm Calling You
TTITLE4=Moving On
TTITLE5=No Money
TTITLE6=Left Behind
TTITLE7=Walking To New Orleans
TTITLE8=Rendez Vous
TTITLE9=Ballad
EXTD=
EXTT0=
EXTT1=
EXTT2=
EXTT3=
EXTT4=
EXTT5=
EXTT6=
EXTT7=
EXTT8=
EXTT9=
PLAYORDER=
